/* XPM */
static const char *encfsgui_ico_xpm[] = {
/* columns rows colors chars-per-pixel */
"128 128 2 1 ",
"  c black",
". c None",
/* pixels */
"................................................................................................................................",
"................................................................................................................................",
"............................................................            ........................................................",
".......................................................                     ....................................................",
"....................................................                          ..................................................",
".................................................                               ................................................",
"............................................                                     ...............................................",
".........................................                      .......            ..............................................",
".......................................                  .................         .............................................",
".....................................                 ......................        ............................................",
"....................................               ..........................       ............................................",
"...................................           .................................      ...........................................",
"..................................         ....................................       ..........................................",
".................................        .......................................      ..........................................",
"................................       ..........................................     ..........................................",
"................................      ...........................................      .........................................",
"...............................      ............................................      .........................................",
"...............................      .............................................     .........................................",
"..............................      ..............................................     .........................................",
"..............................      ..............................................      ........................................",
"..............................     ...............................................      ........................................",
"..............................     ................................................     ........................................",
".............................      ................................................     ........................................",
".............................      ................................................     ........................................",
".............................      ................................................     ........................................",
".............................      ................................................     ........................................",
".............................      ................................................     ........................................",
".............................      ................................................     ........................................",
".............................      ................................................     ........................................",
".............................      ................................................     ........................................",
".............................      ................................................     ........................................",
".............................      ................................................     ........................................",
".............................      ................................................     ........................................",
".............................      ................................................       ......................................",
"............................       ................................................        .....................................",
"...........................        ................................................         ....................................",
"..........................        .................................................          ...................................",
".........................         ..................................................         ...................................",
"........................        ........................................................     ...................................",
"........................      ..........................................................     ...................................",
"........................     ...........................................................     ...................................",
"........................     ...........................................................     ...................................",
"........................     ...........................................................     ...................................",
"........................     ...........................................................     ...................................",
"........................     ...........................................................     ...................................",
"........................     ...........................................................     ...................................",
"........................     ...........................................................     ...................................",
"........................     ...........................................................     ...................................",
"........................     ...........................................................     ...................................",
"........................     ...........................................................     ...................................",
"........................     ...........................................................     ...................................",
"........................     ...........................................................     ...................................",
"........................      ..........................................................     ...................................",
"........................       ........................................................      ...................................",
".........................          ..................................................        ...................................",
".........................           ................................................        ....................................",
"..........................          ................................................        ....................................",
"............................        ................................................       .....................................",
".............................       ................................................      ......................................",
"...............................     ................................................     .......................................",
"...............................     ...............................................      .......................................",
"...............................     ...............................................      .......................................",
"...............................      ..............................................     ........................................",
"...............................      ..............................................     ........................................",
"................................     ..............................................     ........................................",
"................................      ............................................      ........................................",
"................................      ............................................      ........................................",
".................................     ............................................     .........................................",
".................................      ..........................................      .........................................",
".................................      ..........................................      .........................................",
"..................................      ........................................      ............       .......................",
"..................................      ........................................      .........            .....................",
"...................................      ......................................      .........               ...................",
"...................................      ......................................      .......                  ..................",
"....................................      ....................................      .......                    .................",
"....................................       ...................................      .......         ...         ................",
".....................................       .................................      .......       ........        ...............",
"......................................      ................................       ......       ...........      ...............",
"......................................       ..............................       .......      .............      ..............",
".......................................       ............................       ........     ..............      ..............",
"........................................       ..........................        .......      ...............     ..............",
".........................................        .......................        ........      ...............      .............",
"..........................................        .....................        .........     ................      .............",
"...........................................         .................         ..........     ................      .............",
"............................................          .............          ...........     ................      .............",
"............................................             ........           ............     ................      .............",
"............................................                               .............     ................      .............",
"...........................................                              ...............     ................      .............",
"..........................................       .                     .................     ................      .............",
"..........................................      ....                 ...................     ................      .............",
".........................................      ........            .....................     ................      .............",
"........................................       .........................................     ................      .............",
"........................................      ..........................................     ................      .............",
".......................................      ...........................................     ................      .............",
"..........................                   ......................................                                     ........",
"......................                      .....................................                                         ......",
"...................                        .....................................                                           .....",
".................                          ....................................                                             ....",
"...............                           ....................................                                               ...",
"..............               .................................................      ..................................       ...",
"............            .....................................................      ....................................      ...",
"...........          ........................................................      .....................................     ...",
"..........         ..........................................................      .....................................     ...",
".........        ............................................................      .....................................     ...",
"........        .............................................................      .....................................     ...",
".......       ...............................................................      .....................................     ...",
".......      ................................................................      .....................................     ...",
"......       ................................................................      .....................................     ...",
"......      .................................................................      .....................................     ...",
".....      ..................................................................      .....................................     ...",
".....      ..................................................................      .....................................     ...",
"....      ...................................................................      .....................................     ...",
"....      ...................................................................      .....................................     ...",
"....     ....................................................................      .....................................     ...",
"...      ....................................................................      .....................................     ...",
"...      ....................................................................      .....................................     ...",
"...     .....................................................................      .....................................     ...",
"...     .....................................................................      .....................................     ...",
"...     .....................................................................      .....................................     ...",
"...     .....................................................................      ....................................      ...",
"...     ......................................................................      ..................................       ...",
"...     ......................................................................                                               ...",
"...    ........................................................................                                             ....",
"................................................................................                                           .....",
".................................................................................                                         ......",
"...................................................................................                                     ........",
"................................................................................................................................",
"................................................................................................................................"
};
