/* XPM */
static const char *ico_ok[] = {
/* columns rows colors chars-per-pixel */
"32 32 200 2 ",
"   c #40831B",
".  c #458620",
"X  c #478824",
"o  c #488825",
"O  c #498927",
"+  c #498A26",
"@  c #4A8A27",
"#  c #4A8928",
"$  c #4A8929",
"%  c #4A8A28",
"&  c #4B8A28",
"*  c #4B8A29",
"=  c #4B8B2A",
"-  c #4C8A29",
";  c #4C8B2A",
":  c #4D8A2B",
">  c #4D8B2B",
",  c #4C8C2B",
"<  c #4D8C2B",
"1  c #4D8B2C",
"2  c #4E8B2C",
"3  c #4D8C2C",
"4  c #4E8C2C",
"5  c #4F8C2D",
"6  c #4F8D2D",
"7  c #4F8D2E",
"8  c #4F8D2F",
"9  c #4F8E2E",
"0  c #508D2E",
"q  c #518D2E",
"w  c #508D2F",
"e  c #518D2F",
"r  c #508E2F",
"t  c #518E2F",
"y  c #528E2F",
"u  c #508D30",
"i  c #518D30",
"p  c #518D31",
"a  c #508E30",
"s  c #518E30",
"d  c #518F30",
"f  c #508E31",
"g  c #518E31",
"h  c #528E30",
"j  c #528F30",
"k  c #528E31",
"l  c #528F31",
"z  c #528F32",
"x  c #529030",
"c  c #569136",
"v  c #569336",
"b  c #579238",
"n  c #589339",
"m  c #5A943A",
"M  c #59923C",
"N  c #5E9640",
"B  c #609742",
"V  c #619742",
"C  c #619943",
"Z  c #639A45",
"A  c #649A46",
"S  c #649B47",
"D  c #679B48",
"F  c #669B49",
"G  c #679C4A",
"H  c #679D4B",
"J  c #699E4D",
"K  c #6A9E4D",
"L  c #6B9F4E",
"P  c #6C9F51",
"I  c #6CA051",
"U  c #6DA052",
"Y  c #6EA153",
"T  c #6FA254",
"R  c #70A255",
"E  c #71A356",
"W  c #73A457",
"Q  c #74A65B",
"!  c #76A65D",
"~  c #78A75F",
"^  c #7CA962",
"/  c #7CA963",
"(  c #7EAC67",
")  c #81AC68",
"_  c #80AD68",
"`  c #82AE6B",
"'  c #84AE6E",
"]  c #85AF6E",
"[  c #84B16E",
"{  c #87B171",
"}  c #89B272",
"|  c #89B372",
" . c #8AB374",
".. c #8BB374",
"X. c #8BB576",
"o. c #8CB575",
"O. c #8DB578",
"+. c #90B77B",
"@. c #91B77B",
"#. c #93B97E",
"$. c #92B980",
"%. c #94BA81",
"&. c #98BB83",
"*. c #99BD86",
"=. c #9CBF88",
"-. c #9CBE89",
";. c #9CBF89",
":. c #9CBF8A",
">. c #9DBF8A",
",. c #9EBF8B",
"<. c #9DC08A",
"1. c #A0C18E",
"2. c #A2C390",
"3. c #A2C291",
"4. c #A4C493",
"5. c #A7C697",
"6. c #A9C698",
"7. c #A9C89A",
"8. c #ACC99C",
"9. c #ADCA9E",
"0. c #AFCB9E",
"q. c #AFCB9F",
"w. c #AFCBA0",
"e. c #B6CFA8",
"r. c #B7D1AA",
"t. c #BAD3AC",
"y. c #BAD2AD",
"u. c #BCD2AF",
"i. c #BCD3AF",
"p. c #BDD4B1",
"a. c #BED5B1",
"s. c #BDD5B2",
"d. c #BED5B3",
"f. c #BFD5B3",
"g. c #BED6B2",
"h. c #BFD6B3",
"j. c #C0D7B4",
"k. c #C1D7B5",
"l. c #C5DABB",
"z. c #C9DCBF",
"x. c #CBDDC1",
"c. c #D0E1C6",
"v. c #D0E0C7",
"b. c #D1E0C7",
"n. c #D1E3C8",
"m. c #D2E2C9",
"M. c #D3E3CB",
"N. c #D8E6D1",
"B. c #DBE7D3",
"V. c #DBE8D4",
"C. c #DDE8D7",
"Z. c #DDE9D7",
"A. c #DFEAD9",
"S. c #DFEBD9",
"D. c #E0EBDA",
"F. c #E1EBDB",
"G. c #E1ECDB",
"H. c #E4EEDE",
"J. c #E4EEDF",
"K. c #E6EFE0",
"L. c #E6EFE2",
"P. c #E9F3E3",
"I. c #E9F1E4",
"U. c #E9F1E5",
"Y. c #EAF1E5",
"T. c #E9F1E6",
"R. c #EAF2E7",
"E. c #EBF3E7",
"W. c #EDF4EA",
"Q. c #EEF4EC",
"!. c #EEF5EC",
"~. c #EFF5ED",
"^. c #F1F7EF",
"/. c #F2F6EE",
"(. c #F2F6F0",
"). c #F2F7F1",
"_. c #F3F7F1",
"`. c #F4F8F2",
"'. c #F4F9F2",
"]. c #F6F9F3",
"[. c #F5F8F4",
"{. c #F6FAF4",
"}. c #F7FAF6",
"|. c #F9FBF7",
" X c #FCF7FF",
".X c #FAFBF9",
"XX c #FAFCF9",
"oX c #FCFEFB",
"OX c #FDF9FF",
"+X c #FDFBFF",
"@X c #FEFBFF",
"#X c #FDFEFD",
"$X c #FDFCFF",
"%X c #FEFCFF",
"&X c #FEFDFF",
"*X c #FFFDFF",
"=X c #FEFEFE",
"-X c #FFFEFF",
";X c white",
":X c None",
/* pixels */
":X:X:X:X:X:X:X:X:X:X:X:X:X:X:X:X:X:X:X:X:X:X:X:X:X:X:X:X:X:X:X:X",
":X:X:X:X:X:X:X:X:X:X:X:X:X:X:X:X:X:X:X:X:X:X:X:X:X:X:X:X:X:X:X:X",
":X:X:X:X:X:X:X:X:X:X:X:X:X:X:X:X:X:X:X:X:X:X:X:X:X:X:X:X:X:X:X:X",
":X:X:X:X:X:X:X:X:X:X:X:X:X:X:X:X:X:X:X:X:X:X:X:X:X:X:X:X:X:X:X:X",
":X:X:X:X:X:X:X:X:X:X:X:X:X:X:X:X:X:X:X:X:X:X:X:X:X:X:X:X:X:X:X:X",
":X:X:X:X:X:X:X:X:X:X:X:X:X:X:X:X:X:X:X:X:XM :X:X:X:X:X:X:X:X:X:X",
":X:X:X:X:X:X:X:X:X:X:X:X:X:X:X:X:X:X:X:X` A.M.o.:X:X:X:X:X:X:X:X",
":X:X:X:X:X:X:X:X:X:X:X:X:X:X:X:X:X:X:XU P.;X;X}.2.:X:X:X:X:X:X:X",
":X:X:X:X:X:X:X:X:X:X:X:X:X:X:X:X:X:X:Xi.-X@.E Z.-Xj.K :X:X:X:X:X",
":X:X:X:X:X:X:X:X:X:X:X:X:X:X:X:X:X:XX.-Xd.> * z 0.&XR.&.:X:X:X:X",
":X:X:X:X:X:X:X:XR :X:X:X:X:X:X:X:XJ E.K.b 9 s 8 o _ Q.#X7.:X:X:X",
":X:X:X:X:X:X:X<.^.a.:X:X:X:X:X:X:Xh.;XT , d s d h   6.;Xs.:X:X:X",
":X:X:X:X:X:X! _.|.%XU.$.:X:X:X:X%.%X>.O d d d g < H '.Y.W :X:X:X",
":X:X:X:X:X:XN.{.Y } /.=Xw.:X:X] {.m.5 a d s i r 6 n.=X#.:X:X:X:X",
":X:X:X:X:Xe.%X| # # V z.&XV.t.~.`.Z 2 h t t j @ *.%Xr.:X:X:X:X:X",
":X:X:X:X..-Xu.$ d i 1 = 1..XOX;X .+ g k s s < I XXB.:X:X:X:X:X:X",
":X:X:XA L.E.m 7 d d s w O P G.g.% h j s s 0 r H.]./ :X:X:X:X:X:X",
":X:X:X8.@X:.. s d s s s d < b c q d s s i % w.$X=.:X:X:X:X:X:X:X",
":X:X:XO..X`.+.& 7 j s j s f 7 0 i s s t % ( %Xp.:X:X:X:X:X:X:X:X",
":X:X:X:X) D.+Xi.v & s s d t s t s s j 5 B ).F.C :X:X:X:X:X:X:X:X",
":X:X:X:X:XN q.-XJ.^ X w s t s s s s a - b.oX' :X:X:X:X:X:X:X:X:X",
":X:X:X:X:X:X:X} W.-X5.6 3 g h t s d O 4.@X4.:X:X:X:X:X:X:X:X:X:X",
":X:X:X:X:X:X:X:XL x.%Xv.G O s s s ; Q ;Xl.:X:X:X:X:X:X:X:X:X:X:X",
":X:X:X:X:X:X:X:X:X:X3.XX[.;.: 1 7 n T.I.D :X:X:X:X:X:X:X:X:X:X:X",
":X:X:X:X:X:X:X:X:X:X:X[ S.+Xc.F % f.&X{ :X:X:X:X:X:X:X:X:X:X:X:X",
":X:X:X:X:X:X:X:X:X:X:X:X:Xy.;X(.k.*X9.:X:X:X:X:X:X:X:X:X:X:X:X:X",
":X:X:X:X:X:X:X:X:X:X:X:X:X:X,.!. XC.:X:X:X:X:X:X:X:X:X:X:X:X:X:X",
":X:X:X:X:X:X:X:X:X:X:X:X:X:X:XS -.~ :X:X:X:X:X:X:X:X:X:X:X:X:X:X",
":X:Xx u t t p s i r s t j s s 7 * 4 h h s d s h s a y t d p :X:X",
":X:Xl a s s a s d h s s s s i s s e s g s h s t i s s i s x :X:X",
":X:X:X:X:X:X:X:X:X:X:X:X:X:X:X:X:X:X:X:X:X:X:X:X:X:X:X:X:X:X:X:X",
":X:X:X:X:X:X:X:X:X:X:X:X:X:X:X:X:X:X:X:X:X:X:X:X:X:X:X:X:X:X:X:X"
};
