/* XPM */
static const char *ico_notok[] = {
/* columns rows colors chars-per-pixel */
"32 32 54 1 ",
"  c #C6362A",
". c #C8372D",
"X c #C7392E",
"o c #CA3A2E",
"O c #C93F33",
"+ c #C94136",
"@ c #CA443A",
"# c #CB4A3F",
"$ c #CD4E43",
"% c #CD5146",
"& c #CE544A",
"* c #CF594E",
"= c #D0574E",
"- c #D0594F",
"; c #D15D54",
": c #D3665D",
"> c #D66E65",
", c #D57167",
"< c #D6746C",
"1 c #D9746B",
"2 c #D9796F",
"3 c #D77870",
"4 c #DA7B74",
"5 c #DC837D",
"6 c #DC8780",
"7 c #DE8C86",
"8 c #DF8E88",
"9 c #DF9089",
"0 c #E0938D",
"q c #E19790",
"w c #E29B94",
"e c #E49E98",
"r c #E4A29C",
"t c #E6A7A1",
"y c #E7ACA7",
"u c #E7ADA8",
"i c #E8AEA9",
"p c #E9B2AD",
"a c #EAB6B1",
"s c #EBB9B5",
"d c #ECBDB9",
"f c #EEC1BD",
"g c #EFC6C2",
"h c #F2D0CD",
"j c #F3D3D0",
"k c #F5DEDC",
"l c #F7E3E1",
"z c #F8E7E7",
"x c #F9EAE9",
"c c #FBF0EF",
"v c #FCF2F1",
"b c #F5FEFF",
"n c #FEFDFD",
"m c None",
/* pixels */
"mmmmmmmmmmmmmmmmmmmmmmmmmmmmmmmm",
"mmmmmmmmmmmmmmmO.mmmmmmmmmmmmmmm",
"mmmmmmmmmmmmX-235>-Ommmmmmmmmmmm",
"mmmmmmmmmmX>fnbbbbng:Xmmmmmmmmmm",
"mmmmmmmmmX8nnkq50ilnn6Ommmmmmmmm",
"mmmmmmmmX3nn8@XOXX@5nb3 mmmmmmmm",
"mmmmmmmm@zn2X++mm++X,nv&mmmmmmmm",
"mmmmmmmX8bpX+mmmmmm+Otn0 mmmmmmm",
"mmmmmmmOhn:XmmmmmmmmO=nh+mmmmmmm",
"mmmmmmm&nk++mmmmmmmmOOhn&mmmmmmm",
"mmmmmmm>nfXmmmmmmmmmmXan;mmmmmmm",
"mmmmmmm2brXmmmmmmmmmmo0x;mmmmmmm",
"mmmmmmm,bwXmmmmmmmmmmmmmmmmmmmmm",
"mmmmmmm:nw mmmmmmmmmmmmmmmmmmmmm",
"mmmm;m>,u8:>,2233>2mm422253:mmmm",
"mmm0cnnnnnnnnnnnnnnnnnnnnnnv5mmm",
"mmmpnw6wwww088990wqw080qwwenpmmm",
"mmmdn#XXXXXXXXXXXXXXXXXX  &npmmm",
"mmmfn;O+@+++++++++++@+++++*nymmm",
"mmmfn-+++++++++++++++++++X*nummm",
"mmmsn-O+++++++++++@++++++O&nummm",
"mmmpn&O++++++++++++++++++O%nimmm",
"mmmin&+++++++++++++++++++O&npmmm",
"mmmin*X++++++++++++++++++O&npmmm",
"mmmyn&O+@O+++++++++@OO@O+O&nammm",
"mmmpn$ XX X. XXX X..O.OOXX%nymmm",
"mmmanspaspadaaaadspatiiisppnrmmm",
"mmm6lnnnnnnnnnnnnnnnnnvnnnnx5mmm",
"mmmO@$&&&$$$$%=%$$$%$%%%$=&#+mmm",
"mm++++OOOO+O+OOOOO+OOOOOOO++++mm",
"mmmmmmmmmmmm+O@+O+++@@O+mmmmmmmm",
"mmmmmmmmmmmmmmmmmmmmmmmmmmmmmmmm"
};
