/* XPM */
static const char *mountfolder[] = {
/* columns rows colors chars-per-pixel */
"128 128 91 1 ",
"  c #393C43",
". c #3C4047",
"X c #3F424B",
"o c #42454D",
"O c #464953",
"+ c #494C56",
"@ c #4B4F59",
"# c #4E525C",
"$ c #50545F",
"% c #535762",
"& c #535963",
"* c #5A5E67",
"= c #575C68",
"- c #5A5E69",
"; c #5D626D",
": c #5F6570",
"> c #616671",
", c #646A75",
"< c #666D79",
"1 c #686F7B",
"2 c #6A717D",
"3 c #DF6345",
"4 c #DF664A",
"5 c #DF694E",
"6 c #DE6D53",
"7 c #DD735B",
"8 c #E06244",
"9 c #DD7761",
"0 c #DC7A66",
"q c #DC7D6A",
"w c #DB816E",
"e c #DB8573",
"r c #DA8B7C",
"t c #6D7582",
"y c #707682",
"u c #727986",
"i c #747C89",
"p c #7A7F8A",
"a c #7B818E",
"s c #7D8592",
"d c #818692",
"f c #808895",
"g c #858D9A",
"h c #898E9A",
"j c #8A919D",
"k c #8D95A2",
"l c #9196A3",
"z c #939AA7",
"x c #989DA7",
"c c #959DAA",
"v c #999FAB",
"b c #9AA1AD",
"n c #9FA6B3",
"m c #A0A6B3",
"M c #A3A9B5",
"N c #A5ACB9",
"B c #A8AFBC",
"V c #ABB1BE",
"C c #DA8E80",
"Z c #D99185",
"A c #D9958A",
"S c #D8988F",
"D c #D89C93",
"F c #D7A39D",
"G c #D7A6A1",
"H c #D7A8A4",
"J c #D6ADAA",
"K c #D5B3B3",
"L c #D5B7B9",
"P c #D4BABC",
"I c #ADB4C1",
"U c #B1B7C3",
"Y c #B4B9C6",
"T c #B6BCC9",
"R c #B8BECB",
"E c #D4BDC1",
"W c #BCC2CF",
"Q c #BEC4D1",
"! c #D3C0C5",
"~ c #D3C5CB",
"^ c #C1C7D4",
"/ c #C4CAD7",
"( c #C6CCD9",
") c #CACFDB",
"_ c #D2CAD3",
"` c #D1CFD9",
"' c #CBD1DE",
"] c #D1D1DD",
"[ c #CED4E1",
"{ c #D1D7E4",
"} c None",
/* pixels */
"}}}}}}}}}}}}}}}}}}}}}}}}}}}}}}}}}}}}}}}}}}}}}}}}}}}}}}}}}}}}}}}}}}}}}}}}}}}}}}}}}}}}}}}}}}}}}}}}}}}}}}}}}}}}}}}}}}}}}}}}}}}}}}}}",
"}}}}}}}}}}}}}}}}}}}}}}}}}}}}}}}}}}}}}}}}}}}}}}}}}}}}}}}}}}}}}}}}}}}}}}}}}}}}}}}}}}}}}}}}}}}}}}}}}}}}}}}}}}}}}}}}}}}}}}}}}}}}}}}}",
"}}}}}}}}}}}}}}}}}}}}}}}}}}}}}}}}}}}}}}}}}}}}}}}}}}}}}}}}}}}}}}}}}}}}}}}}}}}}}}}}}}}}}}}}}}}}}}}}}}}}}}}}}}}}}}}}}}}}}}}}}}}}}}}}",
"}}}}}}}}}}}}}}}}}}}}}}}}}}}}}}}}}}}}}}}}}}}}}}}}}}}}}}}}}}}}}}}}}}}}}}}}}}}}}}}}}}}}}}}}}}}}}}}}}}}}}}}}}}}}}}}}}}}}}}}}}}}}}}}}",
"}}}}}}}}}}}}}}}}}}}}}}}}}}}}}}}}}}}}}}}}}}}}}}}}}}}}}}}}}}}}}}}}}}}}}}}}}}}}}}}}}}}}}}}}}}}}}}}}}}}}}}}}}}}}}}}}}}}}}}}}}}}}}}}}",
"}}}}}}}}}}}}}}}}}}}}}}}}}}}}}}}}}}}}}}}}}}}}}}}}}}}}}}}}}}}}}}}}}}}}}}}}}}}}}}}}}}}}}}}}}}}}}}}}}}}}}}}}}}}}}}}}}}}}}}}}}}}}}}}}",
"}}}}}}}}}}}}}}}}}}}}}}}}}}}}}}}}}}}}}}}}}}}}}}}}}}}}}}}}}}}}}}}}}}}}}}}}}}}}}}}}}}}}}}}}}}}}}}}}}}}}}}}}}}}}}}}}}}}}}}}}}}}}}}}}",
"}}}}}}}}}}}}}}}}}}}}}}}}}}}}}}}}}}}}}}}}}}}}}}}}}}}}}}}}}}}}}}}}}}}}}}}}}}}}}}}}}}}}}}}}}}}}}}}}}}}}}}}}}}}}}}}}}}}}}}}}}}}}}}}}",
"}}}}}}}}}}}}}}}}}}}}}}}}}}}}}}}}}}}}}}}}}}}}}}}}}}}}}}}}}}}}}}}}}}}}}}}}}}}}}}}}}}}}}}}}}}}}}}}}}}}}}}}}}}}}}}}}}}}}}}}}}}}}}}}}",
"}}}}}}}}}}}}}}}}}}}}}}}}}}}}}}}}}}}}}}}}}}}}}}}}}}}}}}}}}}}}}}}}}}}}}}}}}}}}}}}}}}}}}}}}}}}}}}}}}}}}}}}}}}}}}}}}}}}}}}}}}}}}}}}}",
"}}}}}}}}}}}}}}}}}}}}}}}}}}}}}}}}}}}}}}}}}}}}}}}}}}}}}}}}}}}}}}}}}}}}}}}}}}}}}}}}}}}}}}}}}}}}}}}}}}}}}}}}}}}}}}}}}}}}}}}}}}}}}}}}",
"}}}}}}}}}}}}}}}}}}}}}}}}}}}}}}}}}}}}}}}}}}}}}}}}}}}}}}}}}}}}}}}}}}}}}}}}}}}}}}}}}}}}}}}}}}}}}}}}}}}}}}}}}}}}}}}}}}}}}}}}}}}}}}}}",
"}}}}}}}}}}}}}}}}}}}}}}}}}}}}}}}}}}}}}}}}}}}}}}}}}}}}}}}}}}}}}}}}}}}}}}}}}}}}}}}}}}}}}}}}}}}}}}}}}}}}}}}}}}}}}}}}}}}}}}}}}}}}}}}}",
"}}}}}}}}}}}}}}}}}}}}}}}}}}}}}}}}}}}}}}}}}}}}}}}}}}}}}}}}}}}}}}}}}}}}}}}}}}}}}}}}}}}}}}}}}}}}}}}}}}}}}}}}}}}}}}}}}}}}}}}}}}}}}}}}",
"}}}}}}}}}}}}}}}}}}}}}}}}}}}}}}}}}}}}}}}}}}}}}}}}}}}}}}}}}}}}}}}}}}}}}}}}}}}}}}}}}}}}}}}}}}}}}}}}}}}}}}}}}}}}}}}}}}}}}}}}}}}}}}}}",
"}}}}}}}}}}}}}}}}}}}}}}}}}}}}}}}}}}}}}}}}}}}}}}}}}}}}}}}}}}}}}}}}}}}}}}}}}}}}}}}}}}}}}}}}}}}}}}}}}}}}}}}}}}}}}}}}}}}}}}}}}}}}}}}}",
"}}}}}}}}}}}}}}}}}}}}}}}}}}}}}}}}}}}}}}}}}}}}}}}}}}}}}}}}}}}}}}}}}}}}}}}}}}}}}}}}}}}}}}}}}}}}}}}}}}}}}}}}}}}}}}}}}}}}}}}}}}}}}}}}",
"}}}}}}}}}}}}}}}}}}}}}}}}}}}}}}}}}}}}}}}}}}}}}}}}}}}}}}}}}}}}}}}}}}}}}}}}}}}}}}}}}}}}}}}}}}}}}}}}}}}}}}}}}}}}}}}}}}}}}}}}}}}}}}}}",
"}}}}}}}}}}}                    .    .            .}}}}}}}}}}}}}}}}}}}}}}}}}}}}}}}}}}}}}}}}}}}}}}}}}}}}}}}}}}}}}}}}}}}}}}}}}}}}}}",
"}}}}}}}}}} o@$@@#@##@##@###@#@@#@@@@$@#@@@@%@@@@@o }}}}}}}}}}}}}}}}}}}}}}}}}}}}}}}}}}}}}}}}}}}}}}}}}}}}}}}}}}}}}}}}}}}}}}}}}}}}}",
"}}}}}}}}} @$$$$$$$$$$$$$$$$$$$$$$$$$$$$$%%$$$$$$%$@ }}}}}}}}}}}}}}}}}}}}}}}}}}}}}}}}}}}}}}}}}}}}}}}}}}}}}}}}}}}}}}}}}}}}}}}}}}}}",
"}}}}}}}} o$$$$$$$$$$$$$$$$$$$$$$$$$$$$$$$$$$$$$$$$$X }}}}}}}}}}}}}}}}}}}}}}}}}}}}}}}}}}}}}}}}}}}}}}}}}}}}}}}}}}}}}}}}}}}}}}}}}}}",
"}}}}}}}} +$$$$$$$$$$$$$$$$$$$$$$$$$$$$$$$$$$$$$$$$$@ }}}}}}}}}}}}}}}}}}}}}}}}}}}}}}}}}}}}}}}}}}}}}}}}}}}}}}}}}}}}}}}}}}}}}}}}}}}",
"}}}}}}}} +$$$$$$$$$$$$$$$$$$$$$$$$$$$$$$$$$$$$$$$$$@.}}}}}}}}}}}}}}}}}}}}}}}}}}}}}}}}}}}}}}}}}}}}}}}}}}}}}}}}}}}}}}}}}}}}}}}}}}}",
"}}}}}}}} +$$$$$$$$$$$$#%$$$$$$$$$$$$$$$$$$$$$$$$$$$@ }}}}}}}}}}}}}}}}}}}}}}}}}}}}}}}}}}}}}}}}}}}}}}}}}}}}}}}}}}}}}}}}}}}}}}}}}}}",
"}}}}}}}} +$$$$$$$$$$$$$#$$$$$$$$$$$$$$$$$$$$$$$$$$$+ }}}}}}}}}}}}}}}}}}}}}}}}}}}}}}}}}}}}}}}}}}}}}}}}}}}}}}}}}}}}}}}}}}}}}}}}}}}",
"}}}}}}}} @$$$$$$$$$$$$#%$$$$$$$$$$$$$$$$$$$$$$$$$$$@ }}}}}}}}}}}}}}}}}}}}}}}}}}}}}}}}}}}}}}}}}}}}}}}}}}}}}}}}}}}}}}}}}}}}}}}}}}}",
"}}}}}}}} +$$$$$$$$$$$$%#$$$$$$$$$$$$$$$$$$$$$$$$$$$# }}}}}}}}}}}}}}}}}}}}}}}}}}}}}}}}}}}}}}}}}}}}}}}}}}}}}}}}}}}}}}}}}}}}}}}}}}}",
"}}}}}}}} +$$$#%#$$$$%##%$$$$$$$$$$$$$$$$$$$$$$$$$$$$#o..XXXXXXXXoo.o o ooX oXXXXXXXXXXXXXX.XXX.  }}}}}}}}}}}}}}}}}}}}}}}}}}}}}}}",
"}}}}}}}} +$$$%#%$$$$#%%#$$$$$$$$$$$$$$$$$$$$$%$$$$$$%$%%$$$$$$$&$%$$%%$$$$$%$%$$$%$$$$$$$%$$$%$$o }}}}}}}}}}}}}}}}}}}}}}}}}}}}}}",
"}}}}}}}} @$$==================**================================================================= }}}}}}}}}}}}}}}}}}}}}}}}}}}}}}",
"}}}}}}}} +$$unnnnnnnmnnnnnnnnnnnnnnnnnnnnnnnnnnnnnnnnnnnnnnnnnnnnnnnnnnnnnnnnnnnnnnnnnnnnnnnnnng:+ }}}}}}}}}}}}}}}}}}}}}}}}}}}}}",
"}}}}}}}} @$$i{{{{{{{{{{{{{{{{{{{{{{{{{{{{{{{{{{{{{{{{{{{{{{{{{{{{{{{{{{{{[{[{{{{{[{[{[{{{[{[{{{n:+o}}}}}}}}}}}}}}}}}}}}}}}}}}}}}",
"}}}}}}}} +$$i[{{Qzzzzzzczzzzzczzzzzzcczzzzzzzzzzzzzzczzzzzczzczzzzzzzzzcczcczzzcczczczccczczczcf:+@}}}}}}}}}}}}}}}}}}}}}}}}}}}}}",
"}}}}}}}} +$$i{{{InQQQQQQQQQQQQQQQQQQQQQQQQQQQQQQQQQQQQQQQQQQQQQQQQQQQQQQQQQQQQQQQQQQQQQQQQQQQQQQTTQ[}}}}}}}}}}}}}}}}}}}}}}}}}}}}",
"}}}}}}}} @$$i{{{nT{{{///////Q[Q[(Q[Q(Q([Q(((((Q(((Q[Q((/Q((Q(Q[Q////////////////////////////////////}}}}}}}}}}}}}}}}}}}}}}}}}}}}",
"}}}}}}}} +$$i{{{nR{{{igssssksssssssssksssssssssssgsssgsssksssssksfffffffsfsgffffsfffgsgssfsgdddfsgsk}}}}}}}}}}}}}}}}}}}}}}}}}}}}",
"}}}}}}}} +$$i{{{cQ{{/s{{{{{{{{{{{{{{{{{{{{{{{{{{{{{{{{{{{{{{{{{{{{'ImmnmmmnnmmmmmmmmmmnnmmnnmmmmnmmMmmmmk}}}}}}}}}}}}}}}}}}}}}}}",
"}}}}}}}} @$$i{{{k/{{Tz{{{{{{{{{{{{{{{{{{{{{{{{{{{{{{{{{{{{{{{{{{{Ritttttttttttttttttttttttttttuutttttttttt2}}}}}}}}}}}}}}}}}}}}}",
"}}}}}}}} +$$i{{{k[{{nn{{{{{{{{{{{{{{{{{{{{{{{{{{{{{{{{{{{{{{{{{{Qitt>-;-------;-------------***-----------;}}}}}}}}}}}}}}}}}}}}}",
"}}}}}}}} @$$i{{{g[{{cT{{{{{{{{{{{{{{{{{{{{{{{{{{{{{{{{{{{{{{{{[Witt=----------------------------------------}}}}}}}}}}}}}}}}}}}}",
"}}}}}}}} +$$i{{{g[{{gQ{{{{{{{{{{{{{{{{{{{{{{{{{{{{{{{{{{{{{{{{Qitt------------------------------------------}}}}}}}}}}}}}}}}}}}}",
"}}}}}}}} +$$i{{{g[{{i[{{{{{{{{{{{{{{{{{{{{{{{{{{{{{{{{{{{{{{{Tit<-------------------------------------------}}}}}}}}}}}}}}}}}}}}",
"}}}}}}}} @$$i{[[k{{/s[{{{{{{{{{{{{{{{{{{{{{{{{{{{{{{{{{{{{{{Uit2-------------------------------------------}}}}}}}}}}}}}}}}}}}}}",
"}}}}}}}} +$$i{{/k[{Tk{)Mccckczzkzzzzllzzzzzknzzzlcllclzzclzstt2--------------------------------------------}}}}}}}}}}}}}}}}}}}}}",
"}}}}}}}} +$$i{[Qn{{In/itttttttttttttttttttttattttttttttttttt2,---------------------------------------------}}}}}}}}}}}}}}}}}}}}}",
"}}}}}}}} +$$i{{Tn[[nIgtt<-=-----===;=====;=;;===----==----=;-----------------------------------------------}}}}}}}}}}}}}}}}}}}}}",
"}}}}}}}} +$$i{{II{[hItt,=-------;;==;=;;==;=;;==-----------------------------------------------------------}}}}}}}}}}}}}}}}}}}}}",
"}}}}}}}} @$$i{{NU{{aItt=--------=;-------------------------------------------------------------------------}}}}}}}}}}}}}}}}}}}}}",
"}}}}}}}} +$$i{{nT{[ictt=--------==-------------------------------------------------------------------------}}}}}}}}}}}}}}}}}}}}}",
"}}}}}}}} +$$i{{cQ{Qkgi:=--------;**-----------------------------------------------------------------------}}}}}}}}}}}}}}}}}}}}}}",
"}}}}}}}} +$$i{{k({Ibit:=--------=**-----------------------------------------------------------------------}}}}}}}}}}}}}}}}}}}}}}",
"}}}}}}}} @$$i{{g[{nntt;=----------------------------------------------------------------------------------}}}}}}}}}}}}}}}}}}}}}}",
"}}}}}}}} +$$i{{k{[kntt==----------------------------------------------------------------------------------}}}}}}}}}}}}}}}}}}}}}}",
"}}}}}}}} +$$i{{s{{snt<;=----------------------------------------------------------------------------------}}}}}}}}}}}}}}}}}}}}}}",
"}}}}}}}} +$$i{{s{[izt<------------------------------------------------------------------------------------}}}}}}}}}}}}}}}}}}}}}}",
"}}}}}}}} @$$i{[k{Qgst>-----------------------------------------------------------------------------------}}}}}}}}}}}}}}}}}}}}}}}",
"}}}}}}}} @$$i{Qz{Tctt------------------------------------------------------------------------------------}}}}}}}}}}}}}}}}}}}}}}}",
"}}}}}}}} +$$i{Qb{nctt=-----------------------------------------------------------------------------------}}}}}}}}}}}}}}}}}}}}}}}",
"}}}}}}}} +$$i{Tn{cktt------------------------------------------------------------------------------------}}}}}}}}}}}}}}}}}}}}}}}",
"}}}}}}}} +$$i{In{gzt<-----------------------------------------------------------------------------**-----}}}}}}}}}}}}}}}}}}}}}}}",
"}}}}}}}} +$$i{IU{igt,---------------------------------------------------------------------;2dhzzzhdu;---:}}}}}}}}}}}}}}}}}}}}}}}",
"}}}}}}}} +$$i{nR/git:------------------------------------------------------------------1lY]{{{___`{{{Tl2}}}}}}}}}}}}}}}}}}}}}}}}",
"}}}}}}}} @$$i{cQTgtt=-------------------------*------------------------------------*;dY{`KA088888840ZJ`{/}}}}}}}}}}}}}}}}}}}}}}}",
"}}}}}}}} +$$i{z/Bgtt---------------------------------------------------------------dW{Lr888888888888884eK{{}}}}}}}}}}}}}}}}}}}}}",
"}}}}}}}} +$$i{g{cft1-------------------------------------------------------------1V{L988888888888888888889K{{}}}}}}}}}}}}}}}}}}}",
"}}}}}}}} +$$i{s{hst>----------------------------------------=-------------------a/_e888888888eK~ED388888888e_{}}}}}}}}}}}}}}}}}}",
"}}}}}}}} +$$i{g{pst:-----------------------------------------------------------h[K6888888888C{{{{{F8888888884K{}}}}}}}}}}}}}}}}}",
"}}}}}}}} +$$i{g[stt:----------------------------------------------------------l{F88888888884`{{{{{]48888888883D{_}}}}}}}}}}}}}}}",
"}}}}}}}} +$$i[gRptt=---------------------------------------------------------k{S88888888888e{{{{{{{q88888888888D{}}}}}}}}}}}}}}}",
"}}}}}}}} +$$iQzIitt=--------------------------------------------------------a[F888888888888C{{{{{{{r888888888888D{}}}}}}}}}}}}}}",
"}}}}}}}} +$$iRcbit<--------------------------------------------------------,)K8888888888888C{{{{{{{A8888888888888J{}}}}}}}}}}}}}",
"}}}}}}}} +$$iTnkit>--------------------------------------------------------Y_88888888888888r{{{{{{{A88888888888884~]}}}}}}}}}}}}",
"}}}}}}}} +$$iIBsut:-------------------------------------------------------d{w88888888888888e{{{{{{{A88888888888888q{}}}}}}}}}}}}",
"}}}}}}}} @$$imIutt--------------------------------------------------------/K888888888888888q{{{{{{{r888888888888888J{}}}}}}}}}}}",
"}}}}}}}} +$$inBttt-------------------------------------------------------h{78888888888888889{{{{{{{w8888888888888886{}}}}}}}}}}}",
"}}}}}}}} +$$icntt<-------------------------------------------------------WK88888888888888886{{{{{{{78888888888888888J{}}}}}}}}}}",
"}}}}}}}} +$$ikzut,------------------------------------------------------u{e88888888888888886{{{{{{{688888888888888880{}}}}}}}}}}",
"}}}}}}}} @$$igktt>-----------------------------------------------------*v_888888888888888888{{{{{{{388888888888888888~]}}}}}}}}}",
"}}}}}}}} +$%ifftt-------------------------------------------*----------*^H888888888888888888`{{{{{_888888888888888888F{}}}}}}}}}",
"}}}}}}}} #$$igitt------------------------------------------------------>{r388888888888888888~{{{{{~888888888888888888e{}}}}}}}}}",
"}}}}}}}} +$$iitt1------------------------------------------------------p{6888888888888888888E{{{{{P8888888888888888886{}}}}}}}}}",
"}}}}}}}} +$$ittt<------------------------------------------------------h{8888888888888888888L{{{{{J8888888888888888888_}}}}}}}}}",
"}}}}}}}} +$$iitt>------------------------------------------------------v~8888888888888888888J{{{{{F8888888888888888888!]}}}}}}}}",
"}}}}}}}} +$$tttt-------------------------------------------------------mE8888888888888888888G{{{{{D8888888888888888888L`}}}}}}}}",
"}}}}}}}} +$$ittt------------------------------------------------------*NP8888888888888888888D{{{{{C8888888888888888888K`}}}}}}}}",
"}}}}}}}} #$$ittt----------------------------------------------------**-MP8888888888888888888A{{{{{e8888888888888888888K]}}}}}}}}",
"}}}}}}}} +$$ttt<-----------------------------------------------------;*b~8888888888888888888C{{{{{08888888888888888888E]}}}}}}}}",
"}}}}}}}} +$$ttt,**----**-------*-------*--------**----**--**--------***l`8888888888888888888e{{{{{78888888888888888888_}}}}}}}}}",
"}}}}}}}} +$$itt:*=----**---*---*---*---*---*----*=----**--*=---*----**-p{58888888888888888889{{{{{38888888888888888884{}}}}}}}}}",
"}}}}}}}} +$$ttt#++@o@o@@@+o@++o@@+o@++o@o@O@OOO@++@o@o@@@o++++o@OO@OO@@*{e8888888888888888884]{{{E88888888888888888880{}}}}}}}}}",
"}}}}}}}} +$$tt;                                                         ^D8888888888888888888J{{{D8888888888888888888S{}}}}}}}}}",
"}}}}}}}}} +$:=                                                          vE88888888888888888886E`J48888888888888888888P]}}}}}}}}}",
"}}}}}}}}}}                                                             op{7888888888888888888888888888888888888888887{}}}}}}}}}}",
"}}}}}}}}}}}}}}}}}}}}}}}}}}}}}}}}}}}}}}}}}}}}}}}}}}}}}}}}}}}}}}}}}}}}}}}}}{F88888888888888888888888888888888888888888D{}}}}}}}}}}",
"}}}}}}}}}}}}}}}}}}}}}}}}}}}}}}}}}}}}}}}}}}}}}}}}}}}}}}}}}}}}}}}}}}}}}}}}}`]58888888888888888888888888888888888888884_]}}}}}}}}}}",
"}}}}}}}}}}}}}}}}}}}}}}}}}}}}}}}}}}}}}}}}}}}}}}}}}}}}}}}}}}}}}}}}}}}}}}}}}}{D888888888888888888838888888888888888888S{}}}}}}}}}}}",
"}}}}}}}}}}}}}}}}}}}}}}}}}}}}}}}}}}}}}}}}}}}}}}}}}}}}}}}}}}}}}}}}}}}}}}}}}}]]788888888888888887DJD788888888888888886]]}}}}}}}}}}}",
"}}}}}}}}}}}}}}}}}}}}}}}}}}}}}}}}}}}}}}}}}}}}}}}}}}}}}}}}}}}}}}}}}}}}}}}}}}}{P888888888888888e]{{{]e888888888888883K{}}}}}}}}}}}}",
"}}}}}}}}}}}}}}}}}}}}}}}}}}}}}}}}}}}}}}}}}}}}}}}}}}}}}}}}}}}}}}}}}}}}}}}}}}}}{D88888888888885_{{{{{]58888888888888A{}}}}}}}}}}}}}",
"}}}}}}}}}}}}}}}}}}}}}}}}}}}}}}}}}}}}}}}}}}}}}}}}}}}}}}}}}}}}}}}}}}}}}}}}}}}}]{e888888888888r{{{{{{{r888888888883e{`}}}}}}}}}}}}}",
"}}}}}}}}}}}}}}}}}}}}}}}}}}}}}}}}}}}}}}}}}}}}}}}}}}}}}}}}}}}}}}}}}}}}}}}}}}}}}{]w88888888888r{{{{{{{A888888888880]]}}}}}}}}}}}}}}",
"}}}}}}}}}}}}}}}}}}}}}}}}}}}}}}}}}}}}}}}}}}}}}}}}}}}}}}}}}}}}}}}}}}}}}}}}}}}}}}]]e88888888880{{{{{{{w8888888888w`]}}}}}}}}}}}}}}}",
"}}}}}}}}}}}}}}}}}}}}}}}}}}}}}}}}}}}}}}}}}}}}}}}}}}}}}}}}}}}}}}}}}}}}}}}}}}}}}}}]{A3888888883L{{{{{E3888888888Z{]}}}}}}}}}}}}}}}}",
"}}}}}}}}}}}}}}}}}}}}}}}}}}}}}}}}}}}}}}}}}}}}}}}}}}}}}}}}}}}}}}}}}}}}}}}}}}}}}}}}]{K6888888884J]{{J4888888886K{]}}}}}}}}}}}}}}}}}",
"}}}}}}}}}}}}}}}}}}}}}}}}}}}}}}}}}}}}}}}}}}}}}}}}}}}}}}}}}}}}}}}}}}}}}}}}}}}}}}}}}}{]A488888888464888888883A`{}}}}}}}}}}}}}}}}}}}",
"}}}}}}}}}}}}}}}}}}}}}}}}}}}}}}}}}}}}}}}}}}}}}}}}}}}}}}}}}}}}}}}}}}}}}}}}}}}}}}}}}}}]{_D58888888888888886A_{]}}}}}}}}}}}}}}}}}}}}",
"}}}}}}}}}}}}}}}}}}}}}}}}}}}}}}}}}}}}}}}}}}}}}}}}}}}}}}}}}}}}}}}}}}}}}}}}}}}}}}}}}}}}}]{{KZ73888888887CK]{]}}}}}}}}}}}}}}}}}}}}}}",
"}}}}}}}}}}}}}}}}}}}}}}}}}}}}}}}}}}}}}}}}}}}}}}}}}}}}}}}}}}}}}}}}}}}}}}}}}}}}}}}}}}}}}}}}{{{]!JJFJJE]{{{}}}}}}}}}}}}}}}}}}}}}}}}}",
"}}}}}}}}}}}}}}}}}}}}}}}}}}}}}}}}}}}}}}}}}}}}}}}}}}}}}}}}}}}}}}}}}}}}}}}}}}}}}}}}}}}}}}}}}}}}]]]]]]]}}}}}}}}}}}}}}}}}}}}}}}}}}}}}",
"}}}}}}}}}}}}}}}}}}}}}}}}}}}}}}}}}}}}}}}}}}}}}}}}}}}}}}}}}}}}}}}}}}}}}}}}}}}}}}}}}}}}}}}}}}}}}}}}}}}}}}}}}}}}}}}}}}}}}}}}}}}}}}}}",
"}}}}}}}}}}}}}}}}}}}}}}}}}}}}}}}}}}}}}}}}}}}}}}}}}}}}}}}}}}}}}}}}}}}}}}}}}}}}}}}}}}}}}}}}}}}}}}}}}}}}}}}}}}}}}}}}}}}}}}}}}}}}}}}}",
"}}}}}}}}}}}}}}}}}}}}}}}}}}}}}}}}}}}}}}}}}}}}}}}}}}}}}}}}}}}}}}}}}}}}}}}}}}}}}}}}}}}}}}}}}}}}}}}}}}}}}}}}}}}}}}}}}}}}}}}}}}}}}}}}",
"}}}}}}}}}}}}}}}}}}}}}}}}}}}}}}}}}}}}}}}}}}}}}}}}}}}}}}}}}}}}}}}}}}}}}}}}}}}}}}}}}}}}}}}}}}}}}}}}}}}}}}}}}}}}}}}}}}}}}}}}}}}}}}}}",
"}}}}}}}}}}}}}}}}}}}}}}}}}}}}}}}}}}}}}}}}}}}}}}}}}}}}}}}}}}}}}}}}}}}}}}}}}}}}}}}}}}}}}}}}}}}}}}}}}}}}}}}}}}}}}}}}}}}}}}}}}}}}}}}}",
"}}}}}}}}}}}}}}}}}}}}}}}}}}}}}}}}}}}}}}}}}}}}}}}}}}}}}}}}}}}}}}}}}}}}}}}}}}}}}}}}}}}}}}}}}}}}}}}}}}}}}}}}}}}}}}}}}}}}}}}}}}}}}}}}",
"}}}}}}}}}}}}}}}}}}}}}}}}}}}}}}}}}}}}}}}}}}}}}}}}}}}}}}}}}}}}}}}}}}}}}}}}}}}}}}}}}}}}}}}}}}}}}}}}}}}}}}}}}}}}}}}}}}}}}}}}}}}}}}}}",
"}}}}}}}}}}}}}}}}}}}}}}}}}}}}}}}}}}}}}}}}}}}}}}}}}}}}}}}}}}}}}}}}}}}}}}}}}}}}}}}}}}}}}}}}}}}}}}}}}}}}}}}}}}}}}}}}}}}}}}}}}}}}}}}}",
"}}}}}}}}}}}}}}}}}}}}}}}}}}}}}}}}}}}}}}}}}}}}}}}}}}}}}}}}}}}}}}}}}}}}}}}}}}}}}}}}}}}}}}}}}}}}}}}}}}}}}}}}}}}}}}}}}}}}}}}}}}}}}}}}",
"}}}}}}}}}}}}}}}}}}}}}}}}}}}}}}}}}}}}}}}}}}}}}}}}}}}}}}}}}}}}}}}}}}}}}}}}}}}}}}}}}}}}}}}}}}}}}}}}}}}}}}}}}}}}}}}}}}}}}}}}}}}}}}}}",
"}}}}}}}}}}}}}}}}}}}}}}}}}}}}}}}}}}}}}}}}}}}}}}}}}}}}}}}}}}}}}}}}}}}}}}}}}}}}}}}}}}}}}}}}}}}}}}}}}}}}}}}}}}}}}}}}}}}}}}}}}}}}}}}}",
"}}}}}}}}}}}}}}}}}}}}}}}}}}}}}}}}}}}}}}}}}}}}}}}}}}}}}}}}}}}}}}}}}}}}}}}}}}}}}}}}}}}}}}}}}}}}}}}}}}}}}}}}}}}}}}}}}}}}}}}}}}}}}}}}",
"}}}}}}}}}}}}}}}}}}}}}}}}}}}}}}}}}}}}}}}}}}}}}}}}}}}}}}}}}}}}}}}}}}}}}}}}}}}}}}}}}}}}}}}}}}}}}}}}}}}}}}}}}}}}}}}}}}}}}}}}}}}}}}}}",
"}}}}}}}}}}}}}}}}}}}}}}}}}}}}}}}}}}}}}}}}}}}}}}}}}}}}}}}}}}}}}}}}}}}}}}}}}}}}}}}}}}}}}}}}}}}}}}}}}}}}}}}}}}}}}}}}}}}}}}}}}}}}}}}}",
"}}}}}}}}}}}}}}}}}}}}}}}}}}}}}}}}}}}}}}}}}}}}}}}}}}}}}}}}}}}}}}}}}}}}}}}}}}}}}}}}}}}}}}}}}}}}}}}}}}}}}}}}}}}}}}}}}}}}}}}}}}}}}}}}",
"}}}}}}}}}}}}}}}}}}}}}}}}}}}}}}}}}}}}}}}}}}}}}}}}}}}}}}}}}}}}}}}}}}}}}}}}}}}}}}}}}}}}}}}}}}}}}}}}}}}}}}}}}}}}}}}}}}}}}}}}}}}}}}}}",
"}}}}}}}}}}}}}}}}}}}}}}}}}}}}}}}}}}}}}}}}}}}}}}}}}}}}}}}}}}}}}}}}}}}}}}}}}}}}}}}}}}}}}}}}}}}}}}}}}}}}}}}}}}}}}}}}}}}}}}}}}}}}}}}}",
"}}}}}}}}}}}}}}}}}}}}}}}}}}}}}}}}}}}}}}}}}}}}}}}}}}}}}}}}}}}}}}}}}}}}}}}}}}}}}}}}}}}}}}}}}}}}}}}}}}}}}}}}}}}}}}}}}}}}}}}}}}}}}}}}"
};
